<svg xmlns="http://www.w3.org/2000/svg" width="83.398" height="30" viewBox="0 0 83.398 30">
  <g id="XDC-Logo" transform="translate(-26.5 -23)">
    <g id="XDC-Icon" transform="translate(26.5 23)">
      <g id="Combined_Shape" data-name="Combined Shape" transform="translate(0 0)" fill="none">
        <path d="M14.906,30A15,15,0,0,1,0,16.684L3.368,15,0,13.316a15,15,0,0,1,29.813,0L26.445,15l3.368,1.684A15,15,0,0,1,14.906,30Z" stroke="none"/>
        <path d="M 14.90641498565674 28.00011825561523 C 18.12423515319824 28.00011825561523 21.21201515197754 26.81570816040039 23.60094451904297 24.66507911682129 C 25.62964820861816 22.8387508392334 27.0207405090332 20.44327163696289 27.60131454467773 17.81430816650391 L 21.97295379638672 15.00038814544678 L 27.60136795043945 12.18594264984131 C 27.02079200744629 9.557041168212891 25.62967491149902 7.161509990692139 23.60095405578613 5.335148334503174 C 21.21197509765625 3.184438228607178 18.12419509887695 1.999998211860657 14.90641498565674 1.999998211860657 C 11.6887845993042 1.999998211860657 8.601114273071289 3.184438228607178 6.212174892425537 5.335128307342529 C 4.183472156524658 7.161515712738037 2.792370796203613 9.557050704956055 2.211806058883667 12.18594074249268 L 7.840384960174561 15.00046825408936 L 2.211843967437744 17.81422424316406 C 2.792410850524902 20.44319534301758 4.183490753173828 22.83864974975586 6.212184906005859 24.6650276184082 C 8.601095199584961 26.81569862365723 11.68876457214355 28.00011825561523 14.90641498565674 28.00011825561523 M 14.90641498565674 30.00011825561523 C 11.19373512268066 30.00011825561523 7.630834579467773 28.63328742980957 4.874034881591797 26.15141868591309 C 2.137874841690063 23.6881275177002 0.4069047272205353 20.32584762573242 1.473968495702138e-05 16.6839485168457 L 3.368074655532837 15.00022792816162 L 4.73968520964263e-06 13.31604862213135 C 0.4069147408008575 9.674037933349609 2.137954711914062 6.311948299407959 4.874024868011475 3.848738193511963 C 7.63086462020874 1.366838216781616 11.19376468658447 -1.82586666142015e-06 14.90641498565674 -1.82586666142015e-06 C 18.61920547485352 -1.82586666142015e-06 22.18221473693848 1.366838216781616 24.93909454345703 3.848748207092285 C 27.67529487609863 6.312028408050537 29.40627479553223 9.674247741699219 29.81317520141602 13.31604862213135 L 26.44510459899902 15.00022792816162 L 29.81313514709473 16.6840877532959 C 29.40621566772461 20.32622909545898 27.6751651763916 23.6883373260498 24.9390754699707 26.15148735046387 C 22.1822452545166 28.6333179473877 18.6192455291748 30.00011825561523 14.90641498565674 30.00011825561523 Z" stroke="none" fill="#fff"/>
      </g>
      <path id="X" d="M2.319,11.484,4.8,7.272l2.469,4.212H9.591L6.042,5.695,9.512,0h-2.3L4.8,4.149,2.382,0H.079L3.557,5.695,0,11.484Z" transform="translate(10.086 9.285)" fill="#fff"/>
    </g>
    <path id="XDC" d="M4-16l3.523,5.859h.125L11.188-16h3.3L9.563-8,14.57,0H11.211L7.648-5.82H7.523L3.961,0H.617L5.672-8,.68-16ZM22.188,0H16.766V-16H22.3a8.283,8.283,0,0,1,4.1.957A6.454,6.454,0,0,1,29.031-12.3a9.243,9.243,0,0,1,.922,4.281,9.277,9.277,0,0,1-.926,4.3A6.455,6.455,0,0,1,26.363-.961,8.51,8.51,0,0,1,22.188,0ZM19.664-2.508h2.383a5.74,5.74,0,0,0,2.789-.613,3.875,3.875,0,0,0,1.68-1.836,7.318,7.318,0,0,0,.563-3.059,7.263,7.263,0,0,0-.562-3.051,3.865,3.865,0,0,0-1.66-1.82,5.576,5.576,0,0,0-2.723-.605H19.664ZM46.4-10.6H43.477a3.676,3.676,0,0,0-.461-1.277,3.445,3.445,0,0,0-.836-.949,3.55,3.55,0,0,0-1.137-.59,4.568,4.568,0,0,0-1.371-.2,4.161,4.161,0,0,0-2.312.652,4.334,4.334,0,0,0-1.578,1.906A7.363,7.363,0,0,0,35.211-8a7.405,7.405,0,0,0,.574,3.09A4.265,4.265,0,0,0,37.363-3.02a4.2,4.2,0,0,0,2.3.637,4.606,4.606,0,0,0,1.348-.191,3.671,3.671,0,0,0,1.133-.566A3.432,3.432,0,0,0,43-4.062a3.524,3.524,0,0,0,.48-1.25L46.4-5.3a6.342,6.342,0,0,1-.707,2.141,6.317,6.317,0,0,1-1.418,1.762A6.423,6.423,0,0,1,42.227-.207a7.572,7.572,0,0,1-2.6.426,7.273,7.273,0,0,1-3.766-.977,6.815,6.815,0,0,1-2.609-2.82A9.522,9.522,0,0,1,32.3-8a9.452,9.452,0,0,1,.961-4.426,6.872,6.872,0,0,1,2.617-2.816,7.243,7.243,0,0,1,3.75-.977,7.96,7.96,0,0,1,2.484.375,6.406,6.406,0,0,1,2.047,1.1,5.978,5.978,0,0,1,1.48,1.766A6.655,6.655,0,0,1,46.4-10.6Z" transform="translate(63.5 46)" fill="#fff"/>
  </g>
</svg>
